<?xml version="1.0" encoding="UTF-8" standalone="no"?>
<!-- Created with Inkscape (http://www.inkscape.org/) -->

<svg
   xmlns:dc="http://purl.org/dc/elements/1.1/"
   xmlns:cc="http://creativecommons.org/ns#"
   xmlns:rdf="http://www.w3.org/1999/02/22-rdf-syntax-ns#"
   xmlns:svg="http://www.w3.org/2000/svg"
   xmlns="http://www.w3.org/2000/svg"
   xmlns:sodipodi="http://sodipodi.sourceforge.net/DTD/sodipodi-0.dtd"
   xmlns:inkscape="http://www.inkscape.org/namespaces/inkscape"
   width="43.127087mm"
   height="43.127087mm"
   viewBox="0 0 43.127087 43.127087"
   version="1.1"
   id="svg721"
   inkscape:version="0.92.1 r15371"
   sodipodi:docname="Badge_Public_Created by Eucalyp from the Noun Project.svg">
  <defs
     id="defs715" />
  <sodipodi:namedview
     id="base"
     pagecolor="#ffffff"
     bordercolor="#666666"
     borderopacity="1.0"
     inkscape:pageopacity="0.0"
     inkscape:pageshadow="2"
     inkscape:zoom="0.35"
     inkscape:cx="81.499968"
     inkscape:cy="78.64285"
     inkscape:document-units="mm"
     inkscape:current-layer="layer1"
     showgrid="false"
     inkscape:window-width="1920"
     inkscape:window-height="986"
     inkscape:window-x="-11"
     inkscape:window-y="-11"
     inkscape:window-maximized="1"
     fit-margin-top="0"
     fit-margin-left="0"
     fit-margin-right="0"
     fit-margin-bottom="0" />
  <metadata
     id="metadata718">
    <rdf:RDF>
      <cc:Work
         rdf:about="">
        <dc:format>image/svg+xml</dc:format>
        <dc:type
           rdf:resource="http://purl.org/dc/dcmitype/StillImage" />
        <dc:title></dc:title>
      </cc:Work>
    </rdf:RDF>
  </metadata>
  <g
     inkscape:label="Layer 1"
     inkscape:groupmode="layer"
     id="layer1"
     transform="translate(-84.2698,-126.51383)">
    <circle
       id="path3740"
       cx="105.83334"
       cy="148.07738"
       style="display:inline;opacity:1;fill:#595759;fill-opacity:1;stroke-width:0.6619367"
       r="21.563543" />
    <path
       d="m 120.28119,144.17664 v -3.85268 c 0,-0.5037 -0.37582,-0.9212 -0.86189,-0.98678 -0.0539,-0.42646 -0.36344,-0.78194 -0.78948,-0.88849 -0.30854,-0.0771 -0.62632,-0.11622 -0.94411,-0.11622 h -0.12518 c -0.18379,0 -0.36913,0.0132 -0.55064,0.0391 -1.0545,0.15065 -1.84967,1.06758 -1.84967,2.13275 v 3.67215 c -0.60356,0.31068 -0.99574,0.93301 -0.99574,1.64185 v 1.33357 h 7.11245 v -1.33344 c 0,-0.70882 -0.39218,-1.33117 -0.99574,-1.64183 z m -4.83647,-3.6723 c 0,-0.92462 0.69019,-1.72037 1.60557,-1.85109 0.16813,-0.024 0.33983,-0.0362 0.51024,-0.0362 h 0.12518 c 0.2946,0 0.58906,0.0362 0.87526,0.10767 0.34282,0.0858 0.58223,0.39246 0.58223,0.74581 v 0.14224 h 0.14224 c 0.39218,0 0.71125,0.31907 0.71125,0.71125 v 3.73518 c -0.0548,-0.0177 -0.11067,-0.0331 -0.16786,-0.0459 l -1.11239,-0.24708 v -0.3515 c 0.42988,-0.31025 0.71125,-0.81409 0.71125,-1.38366 v -1.84923 h -0.28449 v 0.0711 l -0.12362,0.0928 c -0.22604,0.16957 -0.50613,0.26288 -0.78877,0.26288 h -1.04453 c -0.32093,0 -0.62733,0.0939 -0.88807,0.26871 v -0.12647 h -0.2845 v 1.28024 c 0,0.56957 0.28138,1.07341 0.71125,1.38366 v 0.3515 l -1.11238,0.24709 c -0.0572,0.0127 -0.11309,0.0283 -0.16786,0.0459 z m 0.85349,0.73585 c 0.24311,-0.22347 0.55577,-0.34723 0.88807,-0.34723 h 1.04453 c 0.32461,0 0.64596,-0.10244 0.91239,-0.28749 v 1.42548 c 0,0.78437 -0.63813,1.42249 -1.4225,1.42249 -0.78436,0 -1.42249,-0.63812 -1.42249,-1.42249 z m 1.42249,2.49775 c 0.25405,0 0.49447,-0.0573 0.71124,-0.15718 v 0.27852 l -0.10955,0.36487 c -0.1727,0.57553 -0.37469,1.14767 -0.60173,1.70528 -0.22716,-0.55761 -0.42916,-1.12975 -0.60171,-1.70528 l -0.10955,-0.36487 v -0.27852 c 0.21679,0.0999 0.45719,0.15718 0.71124,0.15718 z m -0.92647,0.39418 0.0521,0.17367 c 0.14111,0.47014 0.30285,0.93757 0.48023,1.39746 l -0.56032,-0.56031 -0.81793,0.23371 c 0.17909,-0.47668 0.46814,-0.90072 0.84595,-1.24453 z m 1.80073,0.17367 0.0521,-0.17367 c 0.37782,0.34366 0.667,0.76771 0.84596,1.24439 l -0.81793,-0.23372 -0.56032,0.56033 c 0.17752,-0.45976 0.33926,-0.92705 0.48023,-1.39733 z m 2.39747,2.56163 h -1.13799 v -0.56899 h -0.2845 v 0.56899 h -3.69847 v -0.56899 h -0.2845 v 0.56899 h -1.13799 v -1.04895 c 0,-0.73898 0.50384,-1.36715 1.22533,-1.52732 l 0.71722,-0.15947 c -0.37255,0.40171 -0.64667,0.88337 -0.79902,1.41653 l -0.0704,0.24608 1.16147,-0.33186 0.91722,0.91722 0.11991,0.2798 0.11992,-0.2798 0.91722,-0.91722 1.16147,0.33186 -0.0704,-0.24608 c -0.15234,-0.53316 -0.42645,-1.01482 -0.79901,-1.41653 l 0.71722,0.15947 c 0.72149,0.16017 1.22534,0.78834 1.22534,1.52732 z"
       id="path3680-2"
       inkscape:connector-curvature="0"
       style="display:inline;opacity:1;fill:#e7e8e9;fill-opacity:0;stroke-width:0.14224909" />
    <path
       d="m 106.9177,157.24315 v -3.85268 c 0,-0.5037 -0.37582,-0.9212 -0.86189,-0.98678 -0.0539,-0.42646 -0.36344,-0.78194 -0.78948,-0.88848 -0.30854,-0.0771 -0.62632,-0.11623 -0.94411,-0.11623 h -0.12518 c -0.18379,0 -0.36913,0.0132 -0.55064,0.0391 -1.0545,0.15065 -1.84967,1.06758 -1.84967,2.13275 v 3.67215 c -0.60356,0.31067 -0.99574,0.93302 -0.99574,1.64184 v 1.33359 h 7.11245 v -1.33345 c 0,-0.70882 -0.39217,-1.33116 -0.99574,-1.64183 z m -4.83647,-3.67231 c 0,-0.92461 0.69019,-1.72036 1.60557,-1.85108 0.16813,-0.024 0.33983,-0.0362 0.51024,-0.0362 h 0.12518 c 0.2946,0 0.58906,0.0362 0.87526,0.10767 0.34282,0.0858 0.58223,0.39245 0.58223,0.74581 v 0.14224 h 0.14224 c 0.39218,0 0.71125,0.31907 0.71125,0.71125 v 3.73518 c -0.0548,-0.0177 -0.11067,-0.0331 -0.16786,-0.0459 l -1.11239,-0.24708 v -0.3515 c 0.42988,-0.31025 0.71126,-0.81409 0.71126,-1.38366 v -1.84923 h -0.2845 v 0.0711 l -0.12362,0.0928 c -0.22604,0.16955 -0.50612,0.26287 -0.78877,0.26287 h -1.04453 c -0.32091,0 -0.62732,0.0939 -0.88807,0.26872 v -0.12647 h -0.2845 v 1.28024 c 0,0.56957 0.28138,1.07341 0.71126,1.38366 v 0.3515 l -1.11239,0.24709 c -0.0572,0.0127 -0.11309,0.0283 -0.16786,0.0459 z m 0.85349,0.73585 c 0.24311,-0.22346 0.55577,-0.34722 0.88807,-0.34722 h 1.04453 c 0.32461,0 0.64596,-0.10244 0.91239,-0.28749 v 1.42548 c 0,0.78437 -0.63813,1.42249 -1.42249,1.42249 -0.78437,0 -1.4225,-0.63812 -1.4225,-1.42249 z m 1.4225,2.49776 c 0.25406,0 0.49446,-0.0573 0.71125,-0.15719 v 0.27853 l -0.10956,0.36487 c -0.17269,0.57554 -0.37469,1.14767 -0.60171,1.70528 -0.22718,-0.55761 -0.42917,-1.12974 -0.60172,-1.70528 l -0.10956,-0.36487 v -0.27853 c 0.21679,0.0999 0.45719,0.15719 0.71126,0.15719 z m -0.92648,0.39418 0.0521,0.17368 c 0.14111,0.47013 0.30285,0.93756 0.48024,1.39745 l -0.56033,-0.56031 -0.81793,0.23371 c 0.1791,-0.47668 0.46814,-0.90072 0.84596,-1.24453 z m 1.80074,0.17368 0.0521,-0.17368 c 0.37781,0.34366 0.667,0.76771 0.84595,1.24439 l -0.81793,-0.23371 -0.56032,0.56032 c 0.17753,-0.45976 0.33926,-0.92705 0.48023,-1.39732 z m 2.39746,2.56162 h -1.13799 v -0.56899 h -0.2845 v 0.56899 h -3.69847 v -0.56899 h -0.2845 v 0.56899 h -1.13799 v -1.04895 c 0,-0.73897 0.50384,-1.36715 1.22533,-1.52732 l 0.71722,-0.15947 c -0.37255,0.40172 -0.64666,0.88337 -0.79901,1.41653 l -0.0704,0.24609 1.16147,-0.33187 0.91722,0.91722 0.11992,0.2798 0.11991,-0.2798 0.91723,-0.91722 1.16146,0.33187 -0.0704,-0.24609 c -0.15235,-0.53316 -0.42646,-1.01481 -0.79902,-1.41653 l 0.71722,0.15947 c 0.72149,0.16017 1.22534,0.78835 1.22534,1.52732 z"
       id="path3680-23"
       inkscape:connector-curvature="0"
       style="display:inline;opacity:1;fill:#e7e8e9;fill-opacity:0;stroke-width:0.14224909" />
    <path
       d="m 100.50174,146.24521 -1.501742,-0.33378 v -0.47587 c 0.06644,-0.0479 0.130767,-0.0983 0.192045,-0.15305 v 0.30054 l 0.354888,-0.56784 c 0.647349,-1.03586 0.989369,-2.22878 0.989369,-3.44993 v -0.10877 c 0,-1.58834 -1.292202,-2.88055 -2.880546,-2.88055 -1.588334,0 -2.880534,1.29221 -2.880534,2.88055 v 0.86837 c 0,1.10306 0.323389,2.17118 0.9352,3.08911 l 0.366411,0.54942 -1.267055,0.28152 c -1.151067,0.25598 -1.954922,1.25801 -1.954922,2.43713 v 1.80015 h 9.601816 v -1.80015 c 0,-1.17912 -0.80385,-2.18115 -1.95493,-2.43693 z m -0.575342,2.80428 c 0.147882,0.22162 0.225822,0.47952 0.225822,0.74569 v 0.30303 h -4.992933 v -0.30303 c 0,-0.26617 0.078,-0.52407 0.225833,-0.74569 l 0.5934,-0.89027 c 0.1736,0.67213 0.783111,1.17084 1.508823,1.17084 h 0.336833 c 0.7257,0 1.335233,-0.49871 1.508811,-1.17084 z m -3.614889,-3.39174 -0.06811,-0.27307 c 0.02311,0.018 0.04444,0.0384 0.06811,0.0554 z m 2.339,0.56939 0.314367,1.25784 c 0.02311,0.093 0.03511,0.18896 0.03511,0.28517 0,0.64833 -0.527522,1.17584 -1.175833,1.17584 H 97.48732 c -0.648311,0 -1.175822,-0.52751 -1.175822,-1.17584 0,-0.0962 0.01256,-0.19203 0.03511,-0.28517 l 0.202978,-0.8123 0.02489,0.0373 -0.01711,-0.0687 0.103556,-0.41423 0.03444,-0.008 v -0.55962 c 0.2967,0.13651 0.621611,0.21391 0.960189,0.21391 0.336433,0 0.662322,-0.0777 0.960166,-0.21508 v 0.56114 z m -0.994755,-0.7378 c -0.648122,0 -1.243812,-0.32396 -1.601389,-0.86628 -0.08333,-0.35027 -0.126956,-0.70957 -0.126956,-1.06907 v -0.516 c 0,-0.31014 0.172245,-0.58878 0.449734,-0.72763 0.165533,-0.0829 0.311488,-0.20471 0.422288,-0.35257 l 0.300923,-0.40118 0.101444,0.10144 c 0.2289,0.2289 0.512356,0.40403 0.819422,0.50639 0.700356,0.23371 1.170645,0.88643 1.170645,1.62443 v 0.92542 c -0.362556,0.4851 -0.931367,0.77489 -1.536289,0.77489 z m -2.024245,-1.00129 c -0.310533,-0.6754 -0.472222,-1.4105 -0.472222,-2.1631 v -0.86839 c 0,-1.3765 1.119944,-2.49647 2.496467,-2.49647 1.376522,0 2.496466,1.11997 2.496466,2.49647 v 0.10878 c 0,0.90044 -0.197588,1.78441 -0.5761,2.59364 v -0.36985 c 0,-0.90372 -0.575922,-1.7028 -1.433155,-1.98836 -0.251,-0.0836 -0.482411,-0.22659 -0.669256,-0.41364 l -0.4148,-0.41479 -0.5665,0.75544 c -0.07544,0.10056 -0.174566,0.18323 -0.286922,0.23949 -0.408444,0.20415 -0.662133,0.61451 -0.662133,1.07099 v 0.516 c 0,0.31301 0.02956,0.62602 0.08811,0.93387 z m -2.392589,4.19408 c 0,-0.99762 0.6802,-1.84565 1.654011,-2.06208 l 1.349056,-0.29977 -0.267878,1.07136 c -0.0089,0.0377 -0.01511,0.0757 -0.02122,0.11362 l -0.887411,1.33119 c -0.190122,0.28518 -0.290356,0.61664 -0.290356,0.95886 v 0.30302 H 93.23882 Z m 8.83368,1.41608 h -1.53629 v -0.30303 c 0,-0.34222 -0.10011,-0.67386 -0.29036,-0.95884 l -0.887407,-1.3312 c -0.0067,-0.038 -0.01256,-0.0762 -0.02122,-0.11362 l -0.2679,-1.07154 1.349067,0.29975 c 0.97381,0.21662 1.654,1.06465 1.654,2.06228 z"
       id="path4589"
       style="display:inline;opacity:1;fill:#e7e8e9;fill-opacity:1;stroke-width:0.02976562;stroke-miterlimit:4;stroke-dasharray:none"
       inkscape:connector-curvature="0" />
    <path
       d="m 117.95929,146.38185 -1.50174,-0.33378 v -0.47452 c 0.58034,-0.41883 0.9602,-1.09922 0.9602,-1.86797 v -0.53444 c 0.25483,-0.15556 0.43996,-0.41883 0.48432,-0.73015 l 0.0899,-0.62872 0.001,-0.21912 c 0,-0.79523 -0.31688,-1.53556 -0.89242,-2.08459 -0.57534,-0.54865 -1.3295,-0.82864 -2.12722,-0.79273 -1.53728,0.0724 -2.74154,1.36962 -2.74154,2.95338 v 0.116 l 0.0918,0.65581 c 0.0443,0.31129 0.2295,0.57457 0.48433,0.73013 v 0.53444 c 0,0.76874 0.37985,1.44914 0.9602,1.86797 v 0.47452 l -1.5018,0.33377 c -1.1511,0.2558 -1.95496,1.25786 -1.95496,2.43699 v 1.80017 h 3.64874 0.96021 0.38408 0.96019 3.64875 v -1.80017 c 0,-1.17913 -0.80388,-2.18119 -1.95495,-2.43699 z m -0.35181,-4.83652 -0.555,-0.12325 c -0.25983,-0.0578 -0.52274,-0.10066 -0.78698,-0.1347 v -0.07 c 0,-0.76066 -0.24734,-1.48159 -0.69824,-2.07769 0.47376,0.0862 0.91161,0.30614 1.26898,0.64718 0.48721,0.46436 0.75856,1.08754 0.77124,1.75852 z m -2.49423,-2.35575 c 0.4949,0.56115 0.76818,1.27265 0.76818,2.02736 v 0.029 c -0.51102,-0.0438 -1.0253,-0.0438 -1.53632,0 v -0.0292 c 0,-0.75452 0.27328,-1.46603 0.76814,-2.02717 z m -0.45532,-0.0486 c -0.44993,0.5959 -0.69691,1.31605 -0.69691,2.07596 v 0.07 c -0.26404,0.0342 -0.52714,0.077 -0.78697,0.1347 l -0.55153,0.1225 c 0.0557,-1.20391 0.90661,-2.19176 2.03541,-2.4032 z m -2.01794,2.79284 0.61741,-0.13726 c 1.21677,-0.27021 2.49497,-0.27021 3.71174,0 l 0.61739,0.13726 -0.0647,0.45282 c -0.0448,0.3138 -0.31783,0.55059 -0.63489,0.55059 h -0.0452 c -0.23044,0 -0.45572,-0.0433 -0.66925,-0.12886 l -0.24697,-0.0989 c -0.25944,-0.10366 -0.53272,-0.15632 -0.81214,-0.15632 -0.27942,0 -0.55269,0.0527 -0.81212,0.15632 l -0.24697,0.0989 c -0.21356,0.0854 -0.43881,0.12886 -0.66926,0.12886 h -0.0452 c -0.31704,0 -0.59012,-0.23679 -0.63506,-0.55077 z m 0.55289,1.77156 v -0.39764 c 0.0481,0.008 0.0968,0.0134 0.1467,0.0134 h 0.0452 c 0.27938,0 0.55268,-0.0527 0.81212,-0.15633 l 0.24695,-0.0989 c 0.42749,-0.17112 0.91124,-0.17112 1.33872,0 l 0.24695,0.0989 c 0.25927,0.10366 0.53252,0.15633 0.81195,0.15633 h 0.0452 c 0.05,0 0.0986,-0.007 0.14669,-0.0134 v 0.39769 c 0,1.05892 -0.86147,1.9204 -1.92038,1.9204 -1.05891,0 -1.92039,-0.86148 -1.92039,-1.9204 z m 1.92037,2.30448 c 0.343,0 0.66754,-0.0773 0.9602,-0.21221 v 0.55846 l 0.3524,0.0782 c -0.10477,0.41671 -0.47971,0.72763 -0.9285,0.72763 h -0.76816 c -0.4488,0 -0.82385,-0.31092 -0.92851,-0.72783 l 0.35239,-0.0782 v -0.55845 c 0.29266,0.135 0.61722,0.2124 0.96018,0.2124 z m -2.76265,0.74664 1.07348,-0.23852 c 0.14265,0.58899 0.67292,1.0282 1.30511,1.0282 h 0.76816 c 0.63219,0 1.16241,-0.43921 1.30529,-1.0282 l 1.0735,0.23852 c 0.97382,0.21643 1.65404,1.06448 1.65404,2.06213 v 0.64793 h -1.53633 -0.19203 -0.19204 v 0.76816 h -0.39388 c -0.0973,-1.07504 -1.00262,-1.92039 -2.10265,-1.92039 -1.09999,0 -2.00526,0.84535 -2.10262,1.92039 h -0.39388 v -0.76816 h -0.19204 -0.19203 -1.53631 v -0.64793 c 0,-0.99765 0.68021,-1.84571 1.65423,-2.06213 z m -1.65423,3.09415 h 1.53631 v 0.38407 h -1.53631 z m 3.64874,0.38407 v -0.28806 c 0,-0.053 0.043,-0.096 0.096,-0.096 0.053,0 0.096,0.043 0.096,0.096 v 0.28806 z m 1.34427,0 v -0.28806 c 0,-0.053 0.043,-0.096 0.096,-0.096 0.053,0 0.096,0.043 0.096,0.096 v 0.28806 z m 0.096,-0.76816 c -0.26463,0 -0.48008,0.21546 -0.48008,0.4801 v 0.28806 h -0.38408 v -0.28806 c 0,-0.26464 -0.21548,-0.4801 -0.48011,-0.4801 -0.26462,0 -0.4801,0.21546 -0.4801,0.4801 v 0.28806 h -0.56478 c 0.096,-0.86284 0.82903,-1.53631 1.71701,-1.53631 0.88801,0 1.62101,0.67347 1.71705,1.53631 h -0.5648 v -0.28806 c 0,-0.26464 -0.21547,-0.4801 -0.48011,-0.4801 z m 2.20846,0.76816 v -0.38407 h 1.53632 v 0.38407 z"
       id="path5161"
       inkscape:connector-curvature="0"
       style="display:inline;opacity:1;fill:#e7e8e9;fill-opacity:1;stroke-width:0.1920395" />
    <g
       id="g5747"
       style="display:inline;opacity:1;fill:#e7e8e9;fill-opacity:1;stroke-width:1.08500004;stroke-miterlimit:4;stroke-dasharray:none"
       transform="matrix(0.19203629,0,0,0.19203629,100.20781,143.58922)">
      <path
         d="M 46.82,40.936 39,39.198 v -2.471 c 0.009,-0.006 0.017,-0.013 0.025,-0.019 C 39.671,36.9 40.332,37 41,37 c 3.859,0 7,-3.141 7,-7 0,-0.099 -0.002,-0.198 -0.007,-0.297 C 50.905,28.833 53,26.104 53,23 53,21.249 52.344,19.575 51.175,18.292 51.717,17.281 52,16.158 52,15 52,11.381 49.24,8.396 45.715,8.036 44.857,5.074 42.152,3 39,3 38.37,3 37.746,3.085 37.139,3.255 35.815,1.813 33.979,1 32,1 30.021,1 28.185,1.813 26.861,3.255 26.254,3.085 25.63,3 25,3 21.848,3 19.143,5.074 18.285,8.036 14.76,8.396 12,11.381 12,15 c 0,1.158 0.283,2.281 0.825,3.292 C 11.656,19.575 11,21.249 11,23 c 0,3.104 2.095,5.833 5.007,6.703 C 16.002,29.802 16,29.901 16,30 c 0,3.859 3.141,7 7,7 0.668,0 1.329,-0.1 1.975,-0.292 0.009,0.006 0.017,0.013 0.025,0.019 v 2.471 l -7.82,1.737 C 11.186,42.268 7,47.485 7,53.626 V 63 H 57 V 53.626 C 57,47.485 52.814,42.268 46.82,40.936 Z M 45,57.829 V 58 H 19 V 57.829 C 20.164,57.416 21,56.304 21,55 V 42.136 l 1.17,-0.26 0.335,1.508 c 0.746,3.352 3.258,6.052 6.495,7.109 V 52 c 0,1.654 1.346,3 3,3 1.654,0 3,-1.346 3,-3 v -1.507 c 3.238,-1.058 5.749,-3.757 6.495,-7.109 L 41.83,41.876 43,42.136 V 55 c 0,1.304 0.836,2.416 2,2.829 z M 19,60 h 26 v 1 H 19 Z m 12,-8 v -2 c 0,-0.552 0.448,-1 1,-1 0.552,0 1,0.448 1,1 v 2 c 0,0.552 -0.448,1 -1,1 -0.552,0 -1,-0.448 -1,-1 z M 22,27 v -5.026 c 0.838,0.635 1.87,1.026 3,1.026 1.327,0 2.578,-0.534 3.5,-1.451 0.922,0.917 2.173,1.451 3.5,1.451 1.327,0 2.578,-0.534 3.5,-1.451 0.922,0.917 2.173,1.451 3.5,1.451 1.13,0 2.162,-0.391 3,-1.026 V 27 C 42,32.514 37.514,37 32,37 26.486,37 22,32.514 22,27 Z m -4,3 c 0,-0.287 0.028,-0.58 0.085,-0.896 L 18.27,28.09 17.25,27.937 C 14.827,27.572 13,25.449 13,23 c 0,-1.456 0.637,-2.838 1.747,-3.792 l 0.689,-0.592 -0.523,-0.742 C 14.315,17.025 14,16.032 14,15 c 0,-2.757 2.243,-5 4.97,-5.001 l 0.963,0.02 0.143,-0.849 C 20.479,6.753 22.551,5 25,5 c 0.622,0 1.237,0.118 1.827,0.35 l 0.711,0.28 0.457,-0.612 C 28.951,3.735 30.411,3 32,3 c 1.589,0 3.049,0.735 4.005,2.018 L 36.462,5.63 37.173,5.35 C 37.763,5.118 38.378,5 39,5 c 2.449,0 4.521,1.753 4.925,4.169 L 44.153,10 H 45 c 2.757,0 5,2.243 5,5 0,1.031 -0.315,2.025 -0.913,2.874 l -0.523,0.743 0.689,0.592 C 50.363,20.162 51,21.544 51,23 c 0,2.449 -1.827,4.572 -4.25,4.937 l -1.02,0.153 0.185,1.014 C 45.972,29.42 46,29.713 46,30 c 0,2.757 -2.243,5 -5,5 -0.025,0 -0.05,-0.007 -0.075,-0.007 C 42.83,32.868 44,30.072 44,27 v -9 h -2 c 0,1.654 -1.346,3 -3,3 -1.087,0 -2.092,-0.605 -2.622,-1.579 L 35.5,17.807 34.622,19.421 C 34.092,20.395 33.087,21 32,21 30.913,21 29.908,20.395 29.378,19.421 L 28.5,17.807 27.622,19.421 C 27.092,20.395 26.087,21 25,21 23.346,21 22,19.654 22,18 h -2 v 9 c 0,3.072 1.17,5.868 3.075,7.993 C 23.05,34.993 23.025,35 23,35 20.243,35 18,32.757 18,30 Z m 9,10.802 v -2.907 c 1.524,0.702 3.214,1.105 5,1.105 1.786,0 3.476,-0.403 5,-1.105 v 2.907 l 2.877,0.64 -0.335,1.509 c -0.575,2.589 -2.475,4.692 -4.943,5.58 C 34.083,47.621 33.118,47 32,47 c -1.118,0 -2.083,0.621 -2.599,1.53 -2.468,-0.888 -4.368,-2.991 -4.943,-5.58 L 24.123,41.441 Z M 9,53.626 c 0,-5.195 3.542,-9.611 8.613,-10.737 L 19,42.58 V 55 c 0,0.552 -0.448,1 -1,1 h -1 v 5 H 9 Z M 55,61 h -8 v -5 h -1 c -0.552,0 -1,-0.448 -1,-1 V 42.58 l 1.387,0.308 C 51.458,44.015 55,48.431 55,53.626 Z"
         id="path5733"
         style="fill:#e7e8e9;fill-opacity:1;stroke-width:1.08500004;stroke-miterlimit:4;stroke-dasharray:none"
         inkscape:connector-curvature="0" />
      <circle
         cx="27"
         cy="42"
         r="1"
         id="circle5735"
         style="fill:#e7e8e9;fill-opacity:1;stroke-width:1.08500004;stroke-miterlimit:4;stroke-dasharray:none" />
      <circle
         cx="28"
         cy="44"
         r="1"
         id="circle5737"
         style="fill:#e7e8e9;fill-opacity:1;stroke-width:1.08500004;stroke-miterlimit:4;stroke-dasharray:none" />
      <circle
         cx="29"
         cy="46"
         r="1"
         id="circle5739"
         style="fill:#e7e8e9;fill-opacity:1;stroke-width:1.08500004;stroke-miterlimit:4;stroke-dasharray:none" />
      <circle
         cx="37"
         cy="42"
         r="1"
         id="circle5741"
         style="fill:#e7e8e9;fill-opacity:1;stroke-width:1.08500004;stroke-miterlimit:4;stroke-dasharray:none" />
      <circle
         cx="36"
         cy="44"
         r="1"
         id="circle5743"
         style="fill:#e7e8e9;fill-opacity:1;stroke-width:1.08500004;stroke-miterlimit:4;stroke-dasharray:none" />
      <circle
         cx="35"
         cy="46"
         r="1"
         id="circle5745"
         style="fill:#e7e8e9;fill-opacity:1;stroke-width:1.08500004;stroke-miterlimit:4;stroke-dasharray:none" />
    </g>
    <text
       xml:space="preserve"
       style="font-style:normal;font-variant:normal;font-weight:normal;font-stretch:normal;font-size:3.17499995px;line-height:1.20000005;font-family:Arial;-inkscape-font-specification:Arial;letter-spacing:0px;word-spacing:0px;display:inline;opacity:1;fill:#000000;fill-opacity:1;stroke:none;stroke-width:0.29398146"
       x="105.5396"
       y="161.31091"
       id="text6885"><tspan
         sodipodi:role="line"
         x="105.5396"
         y="161.31091"
         style="font-style:normal;font-variant:normal;font-weight:normal;font-stretch:normal;font-size:4.7037034px;line-height:0;font-family:'Arial Rounded MT Bold';-inkscape-font-specification:'Arial Rounded MT Bold, ';text-align:center;text-anchor:middle;fill:#e7e8e9;fill-opacity:1;stroke-width:0.29398146"
         id="tspan6891">Public</tspan></text>
  </g>
</svg>
