<?xml version="1.0" encoding="UTF-8" standalone="no"?>
<!-- Created with Inkscape (http://www.inkscape.org/) -->

<svg
   xmlns:dc="http://purl.org/dc/elements/1.1/"
   xmlns:cc="http://creativecommons.org/ns#"
   xmlns:rdf="http://www.w3.org/1999/02/22-rdf-syntax-ns#"
   xmlns:svg="http://www.w3.org/2000/svg"
   xmlns="http://www.w3.org/2000/svg"
   xmlns:sodipodi="http://sodipodi.sourceforge.net/DTD/sodipodi-0.dtd"
   xmlns:inkscape="http://www.inkscape.org/namespaces/inkscape"
   width="43.127087mm"
   height="43.127087mm"
   viewBox="0 0 43.127087 43.127087"
   version="1.1"
   id="svg485"
   inkscape:version="0.92.1 r15371"
   sodipodi:docname="Badge_Urbanists_Created by Made by Made from the Noun Project.svg">
  <defs
     id="defs479" />
  <sodipodi:namedview
     id="base"
     pagecolor="#ffffff"
     bordercolor="#666666"
     borderopacity="1.0"
     inkscape:pageopacity="0.0"
     inkscape:pageshadow="2"
     inkscape:zoom="0.35"
     inkscape:cx="207.2143"
     inkscape:cy="32.928594"
     inkscape:document-units="mm"
     inkscape:current-layer="layer1"
     showgrid="false"
     fit-margin-top="0"
     fit-margin-left="0"
     fit-margin-right="0"
     fit-margin-bottom="0"
     inkscape:window-width="1920"
     inkscape:window-height="986"
     inkscape:window-x="-11"
     inkscape:window-y="-11"
     inkscape:window-maximized="1" />
  <metadata
     id="metadata482">
    <rdf:RDF>
      <cc:Work
         rdf:about="">
        <dc:format>image/svg+xml</dc:format>
        <dc:type
           rdf:resource="http://purl.org/dc/dcmitype/StillImage" />
        <dc:title></dc:title>
      </cc:Work>
    </rdf:RDF>
  </metadata>
  <g
     inkscape:label="Layer 1"
     inkscape:groupmode="layer"
     id="layer1"
     transform="translate(-51.007883,-114.4186)">
    <circle
       id="path3740-1-1-7-3"
       cx="72.571426"
       cy="135.98215"
       style="display:inline;opacity:1;fill:#595759;fill-opacity:1;stroke-width:0.6619367"
       r="21.563543" />
    <text
       xml:space="preserve"
       style="font-style:normal;font-variant:normal;font-weight:normal;font-stretch:normal;font-size:3.52777767px;line-height:1.20000005;font-family:Arial;-inkscape-font-specification:Arial;letter-spacing:0px;word-spacing:0px;display:inline;opacity:1;fill:#000000;fill-opacity:1;stroke:none;stroke-width:0.29398146"
       x="72.756294"
       y="147.41951"
       id="text6885-3-2-7-2-3"><tspan
         sodipodi:role="line"
         x="72.756294"
         y="147.41951"
         style="font-style:normal;font-variant:normal;font-weight:normal;font-stretch:normal;font-size:4.7037034px;line-height:0;font-family:'Arial Rounded MT Bold';-inkscape-font-specification:'Arial Rounded MT Bold, ';text-align:center;text-anchor:middle;fill:#e7e8e9;fill-opacity:1;stroke-width:0.29398146"
         id="tspan6891-6-1-2-7-3">Urbanists</tspan></text>
    <path
       inkscape:connector-curvature="0"
       d="m 66.294582,126.10014 c 0,-0.58209 -0.476256,-1.0848 -1.0848,-1.0848 -0.582078,0 -1.084789,0.47626 -1.084789,1.0848 0,0.58208 0.476256,1.08479 1.084789,1.08479 0.608544,-0.0264 1.0848,-0.50271 1.0848,-1.08479 z m -1.058333,0.52917 c -0.291045,0 -0.555634,-0.23814 -0.555634,-0.55564 0,-0.29103 0.238134,-0.55562 0.555634,-0.55562 0.291033,0 0.555622,0.23812 0.555622,0.55562 -0.02645,0.3175 -0.264589,0.55564 -0.555622,0.55564 z"
       id="path7438"
       style="display:inline;opacity:1;fill:#e7e8e9;fill-opacity:1;stroke-width:0.26458332" />
    <path
       inkscape:connector-curvature="0"
       d="m 65.236249,124.59201 c 0.158744,0 0.264577,-0.10578 0.264577,-0.26458 v -0.635 c 0,-0.15876 -0.105777,-0.26459 -0.264577,-0.26459 -0.158756,0 -0.264589,0.10589 -0.264589,0.26459 v 0.635 c 0,0.13229 0.105777,0.26458 0.264589,0.26458 z"
       id="path7440"
       style="display:inline;opacity:1;fill:#e7e8e9;fill-opacity:1;stroke-width:0.26458332" />
    <path
       inkscape:connector-curvature="0"
       d="m 64.098538,124.69784 c 0.05289,0.0793 0.132288,0.1323 0.238122,0.1323 0.05289,0 0.07933,0 0.132289,-0.0264 0.1323,-0.0793 0.158755,-0.23813 0.105777,-0.37042 l -0.3175,-0.55562 c -0.07933,-0.1323 -0.238122,-0.15875 -0.370411,-0.10578 -0.132289,0.0529 -0.158755,0.23813 -0.105777,0.37042 z"
       id="path7442"
       style="display:inline;opacity:1;fill:#e7e8e9;fill-opacity:1;stroke-width:0.26458332" />
    <path
       inkscape:connector-curvature="0"
       d="m 62.987282,125.12117 0.529167,0.3175 c 0.05289,0.0264 0.07933,0.0264 0.1323,0.0264 0.07933,0 0.1852,-0.0529 0.238122,-0.13228 0.07933,-0.13229 0.02645,-0.29105 -0.105778,-0.37042 l -0.529167,-0.3175 c -0.132289,-0.0793 -0.291044,-0.0264 -0.370422,0.10589 -0.05289,0.13229 -0.02644,0.29105 0.105778,0.37041 z"
       id="path7444"
       style="display:inline;opacity:1;fill:#e7e8e9;fill-opacity:1;stroke-width:0.26458332" />
    <path
       inkscape:connector-curvature="0"
       d="m 62.775615,126.36472 h 0.635 c 0,0 0,0 0,0 0.1323,0 0.264589,-0.10578 0.264589,-0.26458 0,-0.15875 -0.105778,-0.26459 -0.264589,-0.26459 h -0.635 c 0,0 0,0 0,0 -0.132289,0 -0.264577,0.10578 -0.264577,0.26459 0,0.13229 0.132288,0.23812 0.264577,0.26458 z"
       id="path7446"
       style="display:inline;opacity:1;fill:#e7e8e9;fill-opacity:1;stroke-width:0.26458332" />
    <path
       inkscape:connector-curvature="0"
       d="m 63.860415,126.86743 c -0.07933,-0.13229 -0.238133,-0.18521 -0.370422,-0.10578 l -0.555622,0.29105 c -0.132289,0.0793 -0.185211,0.23812 -0.105778,0.37041 0.05289,0.0793 0.132289,0.13229 0.238122,0.13229 0.05289,0 0.07933,0 0.132289,-0.0264 l 0.555633,-0.29105 c 0.132289,-0.0793 0.185201,-0.23812 0.105778,-0.37041 z"
       id="path7448"
       style="display:inline;opacity:1;fill:#e7e8e9;fill-opacity:1;stroke-width:0.26458332" />
    <path
       inkscape:connector-curvature="0"
       d="m 63.807493,128.42847 c 0.05289,0.0264 0.07933,0.0264 0.132289,0.0264 0.07933,0 0.185211,-0.0529 0.238133,-0.1323 l 0.3175,-0.52916 c 0.07933,-0.13229 0.02645,-0.29104 -0.07933,-0.37041 -0.132289,-0.0793 -0.291045,-0.0264 -0.370422,0.0793 l -0.3175,0.52916 c -0.07933,0.15875 -0.05289,0.3175 0.07933,0.39688 z"
       id="path7450"
       style="display:inline;opacity:1;fill:#e7e8e9;fill-opacity:1;stroke-width:0.26458332" />
    <path
       inkscape:connector-curvature="0"
       d="m 64.892282,127.92576 -0.02645,0.635 c 0,0.15875 0.105778,0.26458 0.264578,0.26458 0,0 0,0 0,0 0.1323,0 0.264589,-0.10578 0.264589,-0.26458 l 0.02644,-0.635 c 0,-0.15875 -0.105778,-0.26459 -0.264578,-0.26459 -0.132289,0 -0.238122,0.1323 -0.264589,0.26459 z"
       id="path7452"
       style="display:inline;opacity:1;fill:#e7e8e9;fill-opacity:1;stroke-width:0.26458332" />
    <path
       inkscape:connector-curvature="0"
       d="m 66.135826,128.40201 c 0.05289,0.0793 0.132289,0.1323 0.238123,0.1323 0.05289,0 0.07933,0 0.1323,-0.0264 0.132289,-0.0793 0.1852,-0.23814 0.105888,-0.37042 l -0.291044,-0.55563 c -0.07933,-0.1323 -0.238122,-0.18521 -0.370422,-0.10577 -0.132289,0.0793 -0.1852,0.23812 -0.105778,0.37041 z"
       id="path7454"
       style="display:inline;opacity:1;fill:#e7e8e9;fill-opacity:1;stroke-width:0.26458332" />
    <path
       inkscape:connector-curvature="0"
       d="m 67.273538,127.7141 c 0.07933,0 0.185211,-0.0529 0.211666,-0.13229 0.07933,-0.1323 0.05289,-0.29105 -0.07933,-0.37042 l -0.529167,-0.34396 c -0.132289,-0.0793 -0.291044,-0.0529 -0.370411,0.0793 -0.07933,0.13229 -0.05289,0.29103 0.07933,0.37041 l 0.529167,0.34396 c 0.07933,0.0264 0.1323,0.0529 0.158756,0.0529 z"
       id="path7456"
       style="display:inline;opacity:1;fill:#e7e8e9;fill-opacity:1;stroke-width:0.26458332" />
    <path
       inkscape:connector-curvature="0"
       d="m 66.770826,126.20597 c 0,0.15875 0.105778,0.26458 0.238123,0.26458 l 0.635,0.0264 c 0,0 0,0 0.02644,0 0.132289,0 0.264578,-0.10589 0.264578,-0.23812 0,-0.15876 -0.105778,-0.26459 -0.238123,-0.26459 l -0.635,-0.0265 c -0.158755,-0.0264 -0.291044,0.0793 -0.291044,0.23813 z"
       id="path7458"
       style="display:inline;opacity:1;fill:#e7e8e9;fill-opacity:1;stroke-width:0.26458332" />
    <path
       inkscape:connector-curvature="0"
       d="m 66.612082,125.43867 c 0.05289,0.0793 0.132289,0.1323 0.238122,0.1323 0.05289,0 0.07933,0 0.132289,-0.0264 l 0.555622,-0.29104 c 0.1323,-0.0529 0.185211,-0.23813 0.105778,-0.34397 -0.05289,-0.13229 -0.238122,-0.1852 -0.343956,-0.10577 l -0.555622,0.29104 c -0.158755,0.0529 -0.211666,0.21167 -0.132289,0.34396 z"
       id="path7460"
       style="display:inline;opacity:1;fill:#e7e8e9;fill-opacity:1;stroke-width:0.26458332" />
    <path
       inkscape:connector-curvature="0"
       d="m 66.082915,124.83014 c 0.05289,0.0264 0.105889,0.0529 0.158745,0.0529 0.07933,0 0.158755,-0.0529 0.211666,-0.10589 l 0.343956,-0.52916 c 0.07933,-0.1323 0.05289,-0.29106 -0.07933,-0.37043 -0.132289,-0.0793 -0.291034,-0.0529 -0.370412,0.0793 l -0.343955,0.52916 c -0.07933,0.10578 -0.05289,0.26458 0.07933,0.34396 z"
       id="path7462"
       style="display:inline;opacity:1;fill:#e7e8e9;fill-opacity:1;stroke-width:0.26458332" />
    <path
       inkscape:connector-curvature="0"
       d="m 62.511038,141.20785 h 19.87021 c 0.158745,0 0.264578,-0.10578 0.264578,-0.26459 0,-0.15874 -0.105778,-0.26457 -0.264578,-0.26457 h -0.555633 v -11.50938 c 0,-0.15876 -0.105778,-0.26459 -0.264578,-0.26459 h -0.423333 c -0.07933,-0.66146 -0.529167,-1.27 -1.005422,-1.27 h -0.449789 v -1.71979 c 0,-0.15876 -0.105778,-0.26459 -0.264578,-0.26459 -0.158756,0 -0.264589,0.10578 -0.264589,0.26459 v 1.71979 h -0.476245 c -0.476255,0 -0.926044,0.60854 -1.005422,1.27 h -0.37041 c -0.158756,0 -0.264589,0.10589 -0.264589,0.26459 v 3.14853 h -3.545411 v -7.85812 c 0,-0.15875 -0.105778,-0.26458 -0.264589,-0.26458 h -4.233334 c -0.158744,0 -0.264577,0.10578 -0.264577,0.26458 v 6.90562 h -0.793756 v -1.29645 c 0,-0.15875 -0.105778,-0.26458 -0.264578,-0.26458 h -4.233333 c -0.158756,0 -0.264589,0.10589 -0.264589,0.26458 v 10.58333 h -0.635 c -0.158744,0 -0.264578,0.10578 -0.264578,0.26459 0,0.15874 0.07933,0.29104 0.238123,0.29104 z m 16.166043,-13.04396 h 1.455201 c 0.105777,0 0.396877,0.29104 0.449799,0.74083 h -2.381255 c 0.05289,-0.44979 0.370422,-0.74083 0.476255,-0.74083 z m -1.111255,1.27 h 3.730622 v 11.2448 h -3.730622 z m -0.582077,11.2448 h -3.4925 v -7.83168 h 3.545411 z m -7.7523,-15.95438 h 3.704166 v 7.64645 c 0,0.0264 0,0.0793 0.02644,0.10589 0,0.0264 -0.02644,0.0529 -0.02644,0.10578 v 8.09626 h -0.899577 l 0.05289,-9.04876 c 0,-0.0793 -0.02644,-0.13229 -0.07933,-0.18521 -0.05289,-0.0529 -0.105778,-0.0793 -0.1852,-0.0793 h -2.592922 z m 2.328333,7.1702 -0.02644,8.78418 h -3.518955 v -8.78418 z m -7.884578,-1.53458 h 3.704167 v 10.31876 h -3.704167 z"
       id="path7464"
       style="display:inline;opacity:1;fill:#e7e8e9;fill-opacity:1;stroke-width:0.26458332" />
    <path
       inkscape:connector-curvature="0"
       d="m 80.449782,131.28597 c 0.158755,0 0.264588,-0.10577 0.264588,-0.26458 v -0.635 c 0,-0.15875 -0.105777,-0.26458 -0.264588,-0.26458 -0.158745,0 -0.264578,0.10578 -0.264578,0.26458 v 0.635 c 0,0.15875 0.105777,0.26458 0.264578,0.26458 z"
       id="path7466"
       style="display:inline;opacity:1;fill:#e7e8e9;fill-opacity:1;stroke-width:0.26458332" />
    <path
       inkscape:connector-curvature="0"
       d="m 79.391448,131.28597 c 0.158756,0 0.264589,-0.10577 0.264589,-0.26458 v -0.635 c 0,-0.15875 -0.105778,-0.26458 -0.264589,-0.26458 -0.158744,0 -0.264578,0.10578 -0.264578,0.26458 v 0.635 c 0,0.15875 0.132289,0.26458 0.264578,0.26458 z"
       id="path7468"
       style="display:inline;opacity:1;fill:#e7e8e9;fill-opacity:1;stroke-width:0.26458332" />
    <path
       inkscape:connector-curvature="0"
       d="m 78.333115,131.28597 c 0.158755,0 0.264589,-0.10577 0.264589,-0.26458 v -0.635 c 0,-0.15875 -0.105778,-0.26458 -0.264589,-0.26458 -0.158745,0 -0.264578,0.10578 -0.264578,0.26458 v 0.635 c 0,0.15875 0.132289,0.26458 0.264578,0.26458 z"
       id="path7470"
       style="display:inline;opacity:1;fill:#e7e8e9;fill-opacity:1;stroke-width:0.26458332" />
    <path
       inkscape:connector-curvature="0"
       d="m 80.449782,132.95284 c 0.158755,0 0.264588,-0.10578 0.264588,-0.26458 v -0.635 c 0,-0.15875 -0.105777,-0.26459 -0.264588,-0.26459 -0.158745,0 -0.264578,0.10578 -0.264578,0.26459 v 0.635 c 0,0.15875 0.105777,0.26458 0.264578,0.26458 z"
       id="path7472"
       style="display:inline;opacity:1;fill:#e7e8e9;fill-opacity:1;stroke-width:0.26458332" />
    <path
       inkscape:connector-curvature="0"
       d="m 79.391448,132.95284 c 0.158756,0 0.264589,-0.10578 0.264589,-0.26458 v -0.635 c 0,-0.15875 -0.105778,-0.26459 -0.264589,-0.26459 -0.158744,0 -0.264578,0.10578 -0.264578,0.26459 v 0.635 c 0,0.15875 0.132289,0.26458 0.264578,0.26458 z"
       id="path7474"
       style="display:inline;opacity:1;fill:#e7e8e9;fill-opacity:1;stroke-width:0.26458332" />
    <path
       inkscape:connector-curvature="0"
       d="m 78.333115,132.95284 c 0.158755,0 0.264589,-0.10578 0.264589,-0.26458 v -0.635 c 0,-0.15875 -0.105778,-0.26459 -0.264589,-0.26459 -0.158745,0 -0.264578,0.10578 -0.264578,0.26459 v 0.635 c 0,0.15875 0.132289,0.26458 0.264578,0.26458 z"
       id="path7476"
       style="display:inline;opacity:1;fill:#e7e8e9;fill-opacity:1;stroke-width:0.26458332" />
    <path
       inkscape:connector-curvature="0"
       d="m 80.449782,134.61972 c 0.158755,0 0.264588,-0.10589 0.264588,-0.26458 v -0.635 c 0,-0.15875 -0.105777,-0.26459 -0.264588,-0.26459 -0.158745,0 -0.264578,0.10578 -0.264578,0.26459 v 0.635 c 0,0.15875 0.105777,0.26458 0.264578,0.26458 z"
       id="path7478"
       style="display:inline;opacity:1;fill:#e7e8e9;fill-opacity:1;stroke-width:0.26458332" />
    <path
       inkscape:connector-curvature="0"
       d="m 79.391448,134.61972 c 0.158756,0 0.264589,-0.10589 0.264589,-0.26458 v -0.635 c 0,-0.15875 -0.105778,-0.26459 -0.264589,-0.26459 -0.158744,0 -0.264578,0.10578 -0.264578,0.26459 v 0.635 c 0,0.15875 0.132289,0.26458 0.264578,0.26458 z"
       id="path7480"
       style="display:inline;opacity:1;fill:#e7e8e9;fill-opacity:1;stroke-width:0.26458332" />
    <path
       inkscape:connector-curvature="0"
       d="m 78.333115,134.61972 c 0.158755,0 0.264589,-0.10589 0.264589,-0.26458 v -0.635 c 0,-0.15875 -0.105778,-0.26459 -0.264589,-0.26459 -0.158745,0 -0.264578,0.10578 -0.264578,0.26459 v 0.635 c 0,0.15875 0.132289,0.26458 0.264578,0.26458 z"
       id="path7482"
       style="display:inline;opacity:1;fill:#e7e8e9;fill-opacity:1;stroke-width:0.26458332" />
    <path
       inkscape:connector-curvature="0"
       d="m 80.449782,136.2866 c 0.158755,0 0.264588,-0.10589 0.264588,-0.26459 v -0.635 c 0,-0.15875 -0.105777,-0.26458 -0.264588,-0.26458 -0.158745,0 -0.264578,0.10578 -0.264578,0.26458 v 0.635 c 0,0.15875 0.105777,0.26459 0.264578,0.26459 z"
       id="path7484"
       style="display:inline;opacity:1;fill:#e7e8e9;fill-opacity:1;stroke-width:0.26458332" />
    <path
       inkscape:connector-curvature="0"
       d="m 79.391448,136.2866 c 0.158756,0 0.264589,-0.10589 0.264589,-0.26459 v -0.635 c 0,-0.15875 -0.105778,-0.26458 -0.264589,-0.26458 -0.158744,0 -0.264578,0.10578 -0.264578,0.26458 v 0.635 c 0,0.15875 0.132289,0.26459 0.264578,0.26459 z"
       id="path7486"
       style="display:inline;opacity:1;fill:#e7e8e9;fill-opacity:1;stroke-width:0.26458332" />
    <path
       inkscape:connector-curvature="0"
       d="m 78.333115,136.2866 c 0.158755,0 0.264589,-0.10589 0.264589,-0.26459 v -0.635 c 0,-0.15875 -0.105778,-0.26458 -0.264589,-0.26458 -0.158745,0 -0.264578,0.10578 -0.264578,0.26458 v 0.635 c 0,0.15875 0.132289,0.26459 0.264578,0.26459 z"
       id="path7488"
       style="display:inline;opacity:1;fill:#e7e8e9;fill-opacity:1;stroke-width:0.26458332" />
    <path
       inkscape:connector-curvature="0"
       d="m 80.449782,137.97993 c 0.158755,0 0.264588,-0.10589 0.264588,-0.26459 v -0.635 c 0,-0.15874 -0.105777,-0.26458 -0.264588,-0.26458 -0.158745,0 -0.264578,0.10578 -0.264578,0.26458 v 0.635 c 0,0.1323 0.105777,0.26459 0.264578,0.26459 z"
       id="path7490"
       style="display:inline;opacity:1;fill:#e7e8e9;fill-opacity:1;stroke-width:0.26458332" />
    <path
       inkscape:connector-curvature="0"
       d="m 79.391448,137.97993 c 0.158756,0 0.264589,-0.10589 0.264589,-0.26459 v -0.635 c 0,-0.15874 -0.105778,-0.26458 -0.264589,-0.26458 -0.158744,0 -0.264578,0.10578 -0.264578,0.26458 v 0.635 c 0,0.1323 0.132289,0.26459 0.264578,0.26459 z"
       id="path7492"
       style="display:inline;opacity:1;fill:#e7e8e9;fill-opacity:1;stroke-width:0.26458332" />
    <path
       inkscape:connector-curvature="0"
       d="m 78.333115,137.97993 c 0.158755,0 0.264589,-0.10589 0.264589,-0.26459 v -0.635 c 0,-0.15874 -0.105778,-0.26458 -0.264589,-0.26458 -0.158745,0 -0.264578,0.10578 -0.264578,0.26458 v 0.635 c 0,0.1323 0.132289,0.26459 0.264578,0.26459 z"
       id="path7494"
       style="display:inline;opacity:1;fill:#e7e8e9;fill-opacity:1;stroke-width:0.26458332" />
    <path
       inkscape:connector-curvature="0"
       d="m 80.449782,139.64681 c 0.158755,0 0.264588,-0.10578 0.264588,-0.26459 v -0.635 c 0,-0.15875 -0.105777,-0.26458 -0.264588,-0.26458 -0.158745,0 -0.264578,0.10578 -0.264578,0.26458 v 0.635 c 0,0.13229 0.105777,0.26459 0.264578,0.26459 z"
       id="path7496"
       style="display:inline;opacity:1;fill:#e7e8e9;fill-opacity:1;stroke-width:0.26458332" />
    <path
       inkscape:connector-curvature="0"
       d="m 79.391448,139.64681 c 0.158756,0 0.264589,-0.10578 0.264589,-0.26459 v -0.635 c 0,-0.15875 -0.105778,-0.26458 -0.264589,-0.26458 -0.158744,0 -0.264578,0.10578 -0.264578,0.26458 v 0.635 c 0,0.13229 0.132289,0.26459 0.264578,0.26459 z"
       id="path7498"
       style="display:inline;opacity:1;fill:#e7e8e9;fill-opacity:1;stroke-width:0.26458332" />
    <path
       inkscape:connector-curvature="0"
       d="m 78.333115,139.64681 c 0.158755,0 0.264589,-0.10578 0.264589,-0.26459 v -0.635 c 0,-0.15875 -0.105778,-0.26458 -0.264589,-0.26458 -0.158745,0 -0.264578,0.10578 -0.264578,0.26458 v 0.635 c 0,0.13229 0.132289,0.26459 0.264578,0.26459 z"
       id="path7500"
       style="display:inline;opacity:1;fill:#e7e8e9;fill-opacity:1;stroke-width:0.26458332" />
    <path
       inkscape:connector-curvature="0"
       d="m 76.322282,134.61972 c 0.158756,0 0.264589,-0.10589 0.264589,-0.26458 v -0.635 c 0,-0.15875 -0.105778,-0.26459 -0.264589,-0.26459 -0.158744,0 -0.264578,0.10578 -0.264578,0.26459 v 0.635 c 0,0.15875 0.105778,0.26458 0.264578,0.26458 z"
       id="path7502"
       style="display:inline;opacity:1;fill:#e7e8e9;fill-opacity:1;stroke-width:0.26458332" />
    <path
       inkscape:connector-curvature="0"
       d="m 75.263949,134.61972 c 0.158755,0 0.264589,-0.10589 0.264589,-0.26458 v -0.635 c 0,-0.15875 -0.105889,-0.26459 -0.264589,-0.26459 -0.158745,0 -0.264578,0.10578 -0.264578,0.26459 v 0.635 c 0,0.15875 0.132289,0.26458 0.264578,0.26458 z"
       id="path7504"
       style="display:inline;opacity:1;fill:#e7e8e9;fill-opacity:1;stroke-width:0.26458332" />
    <path
       inkscape:connector-curvature="0"
       d="m 74.205615,134.61972 c 0.158756,0 0.264589,-0.10589 0.264589,-0.26458 v -0.635 c 0,-0.15875 -0.105778,-0.26459 -0.264589,-0.26459 -0.158744,0 -0.264577,0.10578 -0.264577,0.26459 v 0.635 c 0,0.15875 0.132288,0.26458 0.264577,0.26458 z"
       id="path7506"
       style="display:inline;opacity:1;fill:#e7e8e9;fill-opacity:1;stroke-width:0.26458332" />
    <path
       inkscape:connector-curvature="0"
       d="m 76.322282,136.2866 c 0.158756,0 0.264589,-0.10589 0.264589,-0.26459 v -0.635 c 0,-0.15875 -0.105778,-0.26458 -0.264589,-0.26458 -0.158744,0 -0.264578,0.10578 -0.264578,0.26458 v 0.635 c 0,0.15875 0.105778,0.26459 0.264578,0.26459 z"
       id="path7508"
       style="display:inline;opacity:1;fill:#e7e8e9;fill-opacity:1;stroke-width:0.26458332" />
    <path
       inkscape:connector-curvature="0"
       d="m 75.263949,136.2866 c 0.158755,0 0.264589,-0.10589 0.264589,-0.26459 v -0.635 c 0,-0.15875 -0.105889,-0.26458 -0.264589,-0.26458 -0.158745,0 -0.264578,0.10578 -0.264578,0.26458 v 0.635 c 0,0.15875 0.132289,0.26459 0.264578,0.26459 z"
       id="path7510"
       style="display:inline;opacity:1;fill:#e7e8e9;fill-opacity:1;stroke-width:0.26458332" />
    <path
       inkscape:connector-curvature="0"
       d="m 74.205615,136.2866 c 0.158756,0 0.264589,-0.10589 0.264589,-0.26459 v -0.635 c 0,-0.15875 -0.105778,-0.26458 -0.264589,-0.26458 -0.158744,0 -0.264577,0.10578 -0.264577,0.26458 v 0.635 c 0,0.15875 0.132288,0.26459 0.264577,0.26459 z"
       id="path7512"
       style="display:inline;opacity:1;fill:#e7e8e9;fill-opacity:1;stroke-width:0.26458332" />
    <path
       inkscape:connector-curvature="0"
       d="m 76.322282,137.97993 c 0.158756,0 0.264589,-0.10589 0.264589,-0.26459 v -0.635 c 0,-0.15874 -0.105778,-0.26458 -0.264589,-0.26458 -0.158744,0 -0.264578,0.10578 -0.264578,0.26458 v 0.635 c 0,0.1323 0.105778,0.26459 0.264578,0.26459 z"
       id="path7514"
       style="display:inline;opacity:1;fill:#e7e8e9;fill-opacity:1;stroke-width:0.26458332" />
    <path
       inkscape:connector-curvature="0"
       d="m 75.263949,137.97993 c 0.158755,0 0.264589,-0.10589 0.264589,-0.26459 v -0.635 c 0,-0.15874 -0.105889,-0.26458 -0.264589,-0.26458 -0.158745,0 -0.264578,0.10578 -0.264578,0.26458 v 0.635 c 0,0.1323 0.132289,0.26459 0.264578,0.26459 z"
       id="path7516"
       style="display:inline;opacity:1;fill:#e7e8e9;fill-opacity:1;stroke-width:0.26458332" />
    <path
       inkscape:connector-curvature="0"
       d="m 74.205615,137.97993 c 0.158756,0 0.264589,-0.10589 0.264589,-0.26459 v -0.635 c 0,-0.15874 -0.105778,-0.26458 -0.264589,-0.26458 -0.158744,0 -0.264577,0.10578 -0.264577,0.26458 v 0.635 c 0,0.1323 0.132288,0.26459 0.264577,0.26459 z"
       id="path7518"
       style="display:inline;opacity:1;fill:#e7e8e9;fill-opacity:1;stroke-width:0.26458332" />
    <path
       inkscape:connector-curvature="0"
       d="m 76.322282,139.64681 c 0.158756,0 0.264589,-0.10578 0.264589,-0.26459 v -0.635 c 0,-0.15875 -0.105778,-0.26458 -0.264589,-0.26458 -0.158744,0 -0.264578,0.10578 -0.264578,0.26458 v 0.635 c 0,0.13229 0.105778,0.26459 0.264578,0.26459 z"
       id="path7520"
       style="display:inline;opacity:1;fill:#e7e8e9;fill-opacity:1;stroke-width:0.26458332" />
    <path
       inkscape:connector-curvature="0"
       d="m 75.263949,139.64681 c 0.158755,0 0.264589,-0.10578 0.264589,-0.26459 v -0.635 c 0,-0.15875 -0.105889,-0.26458 -0.264589,-0.26458 -0.158745,0 -0.264578,0.10578 -0.264578,0.26458 v 0.635 c 0,0.13229 0.132289,0.26459 0.264578,0.26459 z"
       id="path7522"
       style="display:inline;opacity:1;fill:#e7e8e9;fill-opacity:1;stroke-width:0.26458332" />
    <path
       inkscape:connector-curvature="0"
       d="m 74.205615,139.64681 c 0.158756,0 0.264589,-0.10578 0.264589,-0.26459 v -0.635 c 0,-0.15875 -0.105778,-0.26458 -0.264589,-0.26458 -0.158744,0 -0.264577,0.10578 -0.264577,0.26458 v 0.635 c 0,0.13229 0.132288,0.26459 0.264577,0.26459 z"
       id="path7524"
       style="display:inline;opacity:1;fill:#e7e8e9;fill-opacity:1;stroke-width:0.26458332" />
    <path
       inkscape:connector-curvature="0"
       d="m 66.532704,134.14347 c -0.158755,0 -0.264589,0.10589 -0.264589,0.26458 v 1.87855 c 0,0.15874 0.105778,0.26457 0.264589,0.26457 0.158745,0 0.264578,-0.10577 0.264578,-0.26457 v -1.87855 c 0,-0.13229 -0.132289,-0.26458 -0.264578,-0.26458 z"
       id="path7526"
       style="display:inline;opacity:1;fill:#e7e8e9;fill-opacity:1;stroke-width:0.26458332" />
    <path
       inkscape:connector-curvature="0"
       d="m 65.527282,134.14347 c -0.158744,0 -0.264578,0.10589 -0.264578,0.26458 v 1.87855 c 0,0.15874 0.105778,0.26457 0.264578,0.26457 0.158756,0 0.264589,-0.10577 0.264589,-0.26457 v -1.87855 c 0,-0.13229 -0.132289,-0.26458 -0.264589,-0.26458 z"
       id="path7528"
       style="display:inline;opacity:1;fill:#e7e8e9;fill-opacity:1;stroke-width:0.26458332" />
    <path
       inkscape:connector-curvature="0"
       d="m 64.521871,134.14347 c -0.158756,0 -0.264589,0.10589 -0.264589,0.26458 v 1.87855 c 0,0.15874 0.105889,0.26457 0.264589,0.26457 0.158744,0 0.264578,-0.10577 0.264578,-0.26457 v -1.87855 c 0,-0.13229 -0.132289,-0.26458 -0.264578,-0.26458 z"
       id="path7530"
       style="display:inline;opacity:1;fill:#e7e8e9;fill-opacity:1;stroke-width:0.26458332" />
    <path
       inkscape:connector-curvature="0"
       d="m 66.532704,131.10076 c -0.158755,0 -0.264589,0.10589 -0.264589,0.26458 v 1.87855 c 0,0.15875 0.105778,0.26458 0.264589,0.26458 0.158745,0 0.264578,-0.10577 0.264578,-0.26458 v -1.87855 c 0,-0.13229 -0.132289,-0.26458 -0.264578,-0.26458 z"
       id="path7532"
       style="display:inline;opacity:1;fill:#e7e8e9;fill-opacity:1;stroke-width:0.26458332" />
    <path
       inkscape:connector-curvature="0"
       d="m 65.527282,131.10076 c -0.158744,0 -0.264578,0.10589 -0.264578,0.26458 v 1.87855 c 0,0.15875 0.105778,0.26458 0.264578,0.26458 0.158756,0 0.264589,-0.10577 0.264589,-0.26458 v -1.87855 c 0,-0.13229 -0.132289,-0.26458 -0.264589,-0.26458 z"
       id="path7534"
       style="display:inline;opacity:1;fill:#e7e8e9;fill-opacity:1;stroke-width:0.26458332" />
    <path
       inkscape:connector-curvature="0"
       d="m 64.521871,131.10076 c -0.158756,0 -0.264589,0.10589 -0.264589,0.26458 v 1.87855 c 0,0.15875 0.105889,0.26458 0.264589,0.26458 0.158744,0 0.264578,-0.10577 0.264578,-0.26458 v -1.87855 c 0,-0.13229 -0.132289,-0.26458 -0.264578,-0.26458 z"
       id="path7536"
       style="display:inline;opacity:1;fill:#e7e8e9;fill-opacity:1;stroke-width:0.26458332" />
    <path
       inkscape:connector-curvature="0"
       d="m 66.532704,137.13326 c -0.158755,0 -0.264589,0.10578 -0.264589,0.26458 v 1.87855 c 0,0.15875 0.105778,0.26458 0.264589,0.26458 0.158745,0 0.264578,-0.10577 0.264578,-0.26458 v -1.87855 c 0,-0.15874 -0.132289,-0.26458 -0.264578,-0.26458 z"
       id="path7538"
       style="display:inline;opacity:1;fill:#e7e8e9;fill-opacity:1;stroke-width:0.26458332" />
    <path
       inkscape:connector-curvature="0"
       d="m 65.527282,137.13326 c -0.158744,0 -0.264578,0.10578 -0.264578,0.26458 v 1.87855 c 0,0.15875 0.105778,0.26458 0.264578,0.26458 0.158756,0 0.264589,-0.10577 0.264589,-0.26458 v -1.87855 c 0,-0.15874 -0.132289,-0.26458 -0.264589,-0.26458 z"
       id="path7540"
       style="display:inline;opacity:1;fill:#e7e8e9;fill-opacity:1;stroke-width:0.26458332" />
    <path
       inkscape:connector-curvature="0"
       d="m 64.521871,137.13326 c -0.158756,0 -0.264589,0.10578 -0.264589,0.26458 v 1.87855 c 0,0.15875 0.105889,0.26458 0.264589,0.26458 0.158744,0 0.264578,-0.10577 0.264578,-0.26458 v -1.87855 c 0,-0.15874 -0.132289,-0.26458 -0.264578,-0.26458 z"
       id="path7542"
       style="display:inline;opacity:1;fill:#e7e8e9;fill-opacity:1;stroke-width:0.26458332" />
    <path
       inkscape:connector-curvature="0"
       d="m 72.115415,130.94201 c 0.158745,0 0.264578,-0.10578 0.264578,-0.26458 v -1.87854 c 0,-0.15875 -0.105778,-0.26458 -0.264578,-0.26458 -0.158755,0 -0.264589,0.10589 -0.264589,0.26458 v 1.87854 c 0,0.15874 0.105778,0.26458 0.264589,0.26458 z"
       id="path7544"
       style="display:inline;opacity:1;fill:#e7e8e9;fill-opacity:1;stroke-width:0.26458332" />
    <path
       inkscape:connector-curvature="0"
       d="m 71.083538,128.53431 c -0.158756,0 -0.264589,0.10589 -0.264589,0.26458 v 1.87854 c 0,0.15874 0.105777,0.26458 0.264589,0.26458 0.158744,0 0.264577,-0.10578 0.264577,-0.26458 v -1.87854 c 0,-0.15875 -0.105777,-0.26458 -0.264577,-0.26458 z"
       id="path7546"
       style="display:inline;opacity:1;fill:#e7e8e9;fill-opacity:1;stroke-width:0.26458332" />
    <path
       inkscape:connector-curvature="0"
       d="m 70.078115,128.53431 c -0.158744,0 -0.264577,0.10589 -0.264577,0.26458 v 1.87854 c 0,0.15874 0.105888,0.26458 0.264577,0.26458 0.158756,0 0.264589,-0.10578 0.264589,-0.26458 v -1.87854 c 0,-0.15875 -0.105889,-0.26458 -0.264589,-0.26458 z"
       id="path7548"
       style="display:inline;opacity:1;fill:#e7e8e9;fill-opacity:1;stroke-width:0.26458332" />
    <path
       inkscape:connector-curvature="0"
       d="m 72.115415,127.89931 c 0.158745,0 0.264578,-0.10578 0.264578,-0.26459 v -1.87855 c 0,-0.15874 -0.105778,-0.26457 -0.264578,-0.26457 -0.158755,0 -0.264589,0.10577 -0.264589,0.26457 v 1.87855 c 0,0.15875 0.105778,0.26459 0.264589,0.26459 z"
       id="path7550"
       style="display:inline;opacity:1;fill:#e7e8e9;fill-opacity:1;stroke-width:0.26458332" />
    <path
       inkscape:connector-curvature="0"
       d="m 71.083538,125.4916 c -0.158756,0 -0.264589,0.10577 -0.264589,0.26457 v 1.87855 c 0,0.15875 0.105777,0.26459 0.264589,0.26459 0.158744,0 0.264577,-0.10578 0.264577,-0.26459 v -1.87855 c 0,-0.15874 -0.105777,-0.26457 -0.264577,-0.26457 z"
       id="path7552"
       style="display:inline;opacity:1;fill:#e7e8e9;fill-opacity:1;stroke-width:0.26458332" />
    <path
       inkscape:connector-curvature="0"
       d="m 70.078115,125.4916 c -0.158744,0 -0.264577,0.10577 -0.264577,0.26457 v 1.87855 c 0,0.15875 0.105888,0.26459 0.264577,0.26459 0.158756,0 0.264589,-0.10578 0.264589,-0.26459 v -1.87855 c 0,-0.15874 -0.105889,-0.26457 -0.264589,-0.26457 z"
       id="path7554"
       style="display:inline;opacity:1;fill:#e7e8e9;fill-opacity:1;stroke-width:0.26458332" />
    <path
       inkscape:connector-curvature="0"
       d="m 70.845415,134.61972 c 0.158745,0 0.264578,-0.10589 0.264578,-0.26458 v -0.635 c 0,-0.15875 -0.105778,-0.26459 -0.264578,-0.26459 -0.158755,0 -0.264589,0.10578 -0.264589,0.26459 v 0.635 c 0,0.15875 0.132289,0.26458 0.264589,0.26458 z"
       id="path7556"
       style="display:inline;opacity:1;fill:#e7e8e9;fill-opacity:1;stroke-width:0.26458332" />
    <path
       inkscape:connector-curvature="0"
       d="m 69.787082,134.61972 c 0.158744,0 0.264578,-0.10589 0.264578,-0.26458 v -0.635 c 0,-0.15875 -0.105778,-0.26459 -0.264578,-0.26459 -0.158756,0 -0.264589,0.10578 -0.264589,0.26459 v 0.635 c 0,0.15875 0.132289,0.26458 0.264589,0.26458 z"
       id="path7558"
       style="display:inline;opacity:1;fill:#e7e8e9;fill-opacity:1;stroke-width:0.26458332" />
    <path
       inkscape:connector-curvature="0"
       d="m 68.755204,134.61972 c 0.158745,0 0.264578,-0.10589 0.264578,-0.26458 v -0.635 c 0,-0.15875 -0.105778,-0.26459 -0.264578,-0.26459 -0.158755,0 -0.264589,0.10578 -0.264589,0.26459 v 0.635 c 0,0.15875 0.105778,0.26458 0.264589,0.26458 z"
       id="path7560"
       style="display:inline;opacity:1;fill:#e7e8e9;fill-opacity:1;stroke-width:0.26458332" />
    <path
       inkscape:connector-curvature="0"
       d="m 70.845415,136.2866 c 0.158745,0 0.264578,-0.10589 0.264578,-0.26459 v -0.635 c 0,-0.15875 -0.105778,-0.26458 -0.264578,-0.26458 -0.158755,0 -0.264589,0.10578 -0.264589,0.26458 v 0.635 c 0,0.15875 0.132289,0.26459 0.264589,0.26459 z"
       id="path7562"
       style="display:inline;opacity:1;fill:#e7e8e9;fill-opacity:1;stroke-width:0.26458332" />
    <path
       inkscape:connector-curvature="0"
       d="m 69.787082,136.2866 c 0.158744,0 0.264578,-0.10589 0.264578,-0.26459 v -0.635 c 0,-0.15875 -0.105778,-0.26458 -0.264578,-0.26458 -0.158756,0 -0.264589,0.10578 -0.264589,0.26458 v 0.635 c 0,0.15875 0.132289,0.26459 0.264589,0.26459 z"
       id="path7564"
       style="display:inline;opacity:1;fill:#e7e8e9;fill-opacity:1;stroke-width:0.26458332" />
    <path
       inkscape:connector-curvature="0"
       d="m 68.755204,136.2866 c 0.158745,0 0.264578,-0.10589 0.264578,-0.26459 v -0.635 c 0,-0.15875 -0.105778,-0.26458 -0.264578,-0.26458 -0.158755,0 -0.264589,0.10578 -0.264589,0.26458 v 0.635 c 0,0.15875 0.105778,0.26459 0.264589,0.26459 z"
       id="path7566"
       style="display:inline;opacity:1;fill:#e7e8e9;fill-opacity:1;stroke-width:0.26458332" />
    <path
       inkscape:connector-curvature="0"
       d="m 70.845415,137.97993 c 0.158745,0 0.264578,-0.10589 0.264578,-0.26459 v -0.635 c 0,-0.15874 -0.105778,-0.26458 -0.264578,-0.26458 -0.158755,0 -0.264589,0.10578 -0.264589,0.26458 v 0.635 c 0,0.1323 0.132289,0.26459 0.264589,0.26459 z"
       id="path7568"
       style="display:inline;opacity:1;fill:#e7e8e9;fill-opacity:1;stroke-width:0.26458332" />
    <path
       inkscape:connector-curvature="0"
       d="m 69.787082,137.97993 c 0.158744,0 0.264578,-0.10589 0.264578,-0.26459 v -0.635 c 0,-0.15874 -0.105778,-0.26458 -0.264578,-0.26458 -0.158756,0 -0.264589,0.10578 -0.264589,0.26458 v 0.635 c 0,0.1323 0.132289,0.26459 0.264589,0.26459 z"
       id="path7570"
       style="display:inline;opacity:1;fill:#e7e8e9;fill-opacity:1;stroke-width:0.26458332" />
    <path
       inkscape:connector-curvature="0"
       d="m 68.755204,137.97993 c 0.158745,0 0.264578,-0.10589 0.264578,-0.26459 v -0.635 c 0,-0.15874 -0.105778,-0.26458 -0.264578,-0.26458 -0.158755,0 -0.264589,0.10578 -0.264589,0.26458 v 0.635 c 0,0.1323 0.105778,0.26459 0.264589,0.26459 z"
       id="path7572"
       style="display:inline;opacity:1;fill:#e7e8e9;fill-opacity:1;stroke-width:0.26458332" />
    <path
       inkscape:connector-curvature="0"
       d="m 70.845415,139.64681 c 0.158745,0 0.264578,-0.10578 0.264578,-0.26459 v -0.635 c 0,-0.15875 -0.105778,-0.26458 -0.264578,-0.26458 -0.158755,0 -0.264589,0.10578 -0.264589,0.26458 v 0.635 c 0,0.13229 0.132289,0.26459 0.264589,0.26459 z"
       id="path7574"
       style="display:inline;opacity:1;fill:#e7e8e9;fill-opacity:1;stroke-width:0.26458332" />
    <path
       inkscape:connector-curvature="0"
       d="m 69.787082,139.64681 c 0.158744,0 0.264578,-0.10578 0.264578,-0.26459 v -0.635 c 0,-0.15875 -0.105778,-0.26458 -0.264578,-0.26458 -0.158756,0 -0.264589,0.10578 -0.264589,0.26458 v 0.635 c 0,0.13229 0.132289,0.26459 0.264589,0.26459 z"
       id="path7576"
       style="display:inline;opacity:1;fill:#e7e8e9;fill-opacity:1;stroke-width:0.26458332" />
    <path
       inkscape:connector-curvature="0"
       d="m 68.755204,139.64681 c 0.158745,0 0.264578,-0.10578 0.264578,-0.26459 v -0.635 c 0,-0.15875 -0.105778,-0.26458 -0.264578,-0.26458 -0.158755,0 -0.264589,0.10578 -0.264589,0.26458 v 0.635 c 0,0.13229 0.105778,0.26459 0.264589,0.26459 z"
       id="path7578"
       style="display:inline;opacity:1;fill:#e7e8e9;fill-opacity:1;stroke-width:0.26458332" />
  </g>
</svg>
