<?xml version="1.0" encoding="UTF-8" standalone="no"?>
<!-- Created with Inkscape (http://www.inkscape.org/) -->

<svg
   xmlns:dc="http://purl.org/dc/elements/1.1/"
   xmlns:cc="http://creativecommons.org/ns#"
   xmlns:rdf="http://www.w3.org/1999/02/22-rdf-syntax-ns#"
   xmlns:svg="http://www.w3.org/2000/svg"
   xmlns="http://www.w3.org/2000/svg"
   xmlns:sodipodi="http://sodipodi.sourceforge.net/DTD/sodipodi-0.dtd"
   xmlns:inkscape="http://www.inkscape.org/namespaces/inkscape"
   width="43.127087mm"
   height="43.127087mm"
   viewBox="0 0 43.127087 43.127087"
   version="1.1"
   id="svg197"
   inkscape:version="0.92.1 r15371"
   sodipodi:docname="Badge_Community Organizers_Created by Cathy Moser from the Noun Project.svg">
  <defs
     id="defs191" />
  <sodipodi:namedview
     id="base"
     pagecolor="#ffffff"
     bordercolor="#666666"
     borderopacity="1.0"
     inkscape:pageopacity="0.0"
     inkscape:pageshadow="2"
     inkscape:zoom="0.35"
     inkscape:cx="21.500025"
     inkscape:cy="7.2142425"
     inkscape:document-units="mm"
     inkscape:current-layer="layer1"
     showgrid="false"
     fit-margin-top="0"
     fit-margin-left="0"
     fit-margin-right="0"
     fit-margin-bottom="0"
     inkscape:window-width="1920"
     inkscape:window-height="986"
     inkscape:window-x="-11"
     inkscape:window-y="-11"
     inkscape:window-maximized="1" />
  <metadata
     id="metadata194">
    <rdf:RDF>
      <cc:Work
         rdf:about="">
        <dc:format>image/svg+xml</dc:format>
        <dc:type
           rdf:resource="http://purl.org/dc/dcmitype/StillImage" />
        <dc:title></dc:title>
      </cc:Work>
    </rdf:RDF>
  </metadata>
  <g
     inkscape:label="Layer 1"
     inkscape:groupmode="layer"
     id="layer1"
     transform="translate(-100.14478,-107.61502)">
    <circle
       id="path3740-1-1-7-3-4"
       cx="121.70833"
       cy="129.17856"
       style="display:inline;opacity:1;fill:#595759;fill-opacity:1;stroke-width:0.6619367"
       r="21.563543" />
    <text
       xml:space="preserve"
       style="font-style:normal;font-variant:normal;font-weight:normal;font-stretch:normal;font-size:3.10444427px;line-height:1.20000005;font-family:Arial;-inkscape-font-specification:Arial;letter-spacing:0px;word-spacing:0px;display:inline;opacity:1;fill:#000000;fill-opacity:1;stroke:none;stroke-width:0.29398146"
       x="120.70039"
       y="136.34479"
       id="text6885-3-2-7-2"><tspan
         sodipodi:role="line"
         x="120.70039"
         y="136.34479"
         style="font-style:normal;font-variant:normal;font-weight:normal;font-stretch:normal;font-size:4.7037034px;line-height:0;font-family:'Arial Rounded MT Bold';-inkscape-font-specification:'Arial Rounded MT Bold, ';text-align:center;text-anchor:middle;fill:#e7e8e9;fill-opacity:1;stroke-width:0.29398146"
         id="tspan6891-6-1-2-7">Community</tspan><tspan
         sodipodi:role="line"
         x="120.70039"
         y="140.07011"
         style="font-style:normal;font-variant:normal;font-weight:normal;font-stretch:normal;font-size:4.7037034px;line-height:0;font-family:'Arial Rounded MT Bold';-inkscape-font-specification:'Arial Rounded MT Bold, ';text-align:center;text-anchor:middle;fill:#e7e8e9;fill-opacity:1;stroke-width:0.29398146"
         id="tspan7166">Organziers</tspan></text>
    <path
       inkscape:connector-curvature="0"
       style="color:#000000;font-style:normal;font-variant:normal;font-weight:normal;font-stretch:normal;font-size:medium;line-height:normal;font-family:Sans;-inkscape-font-specification:Sans;text-indent:0;text-align:start;text-decoration:none;text-decoration-line:none;letter-spacing:normal;word-spacing:normal;text-transform:none;writing-mode:lr-tb;direction:ltr;baseline-shift:baseline;text-anchor:start;display:inline;overflow:visible;visibility:visible;opacity:1;fill:#e7e8e9;fill-opacity:1;stroke:none;stroke-width:0.78170401;marker:none;enable-background:accumulate"
       d="m 118.2913,113.94919 a 0.3908911,0.3908911 0 0 0 -0.35421,0.39085 v 0.7817 h -2.34511 c -0.64284,0 -1.17256,0.52973 -1.17256,1.17256 v 13.67982 c 0,0.64284 0.52972,1.17256 1.17256,1.17256 h 10.16215 c 0.64283,0 1.17256,-0.52972 1.17256,-1.17256 v -5.21543 l 1.66111,-2.81536 0.92828,0.54354 -1.5573,2.5955 a 0.39171039,0.39171039 0 0 0 0.67177,0.40306 l 1.75884,-2.93139 a 0.3908911,0.3908911 0 0 0 -0.14047,-0.53742 l -1.26416,-0.74506 0.47025,-0.79393 c 0.41672,-0.70567 0.17628,-1.61856 -0.53742,-2.02143 l -0.0183,-0.0122 c -0.6691,-0.37768 -1.52465,-0.18031 -1.97259,0.42749 v -2.57717 c 0,-0.64283 -0.52973,-1.17255 -1.17256,-1.17255 h -2.3451 v -0.78171 a 0.3908911,0.3908911 0 0 0 -0.39086,-0.39085 h -4.69022 a 0.3908911,0.3908911 0 0 0 -0.0366,0 z m 0.42749,0.7817 h 3.90852 v 1.56341 h -3.90852 z m -3.12681,1.17255 h 2.34511 v 0.78172 a 0.3908911,0.3908911 0 0 0 0.39085,0.39085 h 4.69022 a 0.3908911,0.3908911 0 0 0 0.39086,-0.39085 v -0.78172 h 2.34511 c 0.22329,0 0.39085,0.16757 0.39085,0.39086 v 3.8841 l -1.77105,2.99857 a 0.3908911,0.3908911 0 0 0 -0.18321,-0.0428 h -3.51767 a 0.3908911,0.3908911 0 0 0 -0.0366,0 0.39128118,0.39128118 0 1 0 0.0366,0.7817 h 3.26728 l -1.11149,1.88097 c -0.088,0.149 -0.14615,0.30382 -0.17711,0.46414 h -1.97868 a 0.3908911,0.3908911 0 0 0 -0.0366,0 0.39128118,0.39128118 0 1 0 0.0366,0.7817 h 2.04587 c 0.11564,0.31244 0.33327,0.5922 0.64734,0.76949 l 0.0245,0.0122 c 0.7137,0.40284 1.63525,0.14993 2.05198,-0.55575 l 0.70231,-1.19089 v 3.89631 c 0,0.22329 -0.16756,0.39086 -0.39085,0.39086 h -10.16216 c -0.22329,0 -0.39085,-0.16757 -0.39085,-0.39086 v -13.67981 c 0,-0.22329 0.16756,-0.39086 0.39085,-0.39086 z m 3.48713,2.92529 a 0.3908911,0.3908911 0 0 0 -0.26261,0.14047 l -1.14201,1.30691 -0.29925,-0.20153 a 0.39128121,0.39128121 0 1 0 -0.43971,0.64734 l 0.58628,0.39086 a 0.3908911,0.3908911 0 0 0 0.51299,-0.0672 l 1.36798,-1.5634 a 0.3908911,0.3908911 0 0 0 -0.28703,-0.65346 0.3908911,0.3908911 0 0 0 -0.0366,0 z m 9.01402,0.19542 c 0.13708,-0.01 0.27856,0.0179 0.40918,0.0916 l 0.0183,0.0122 c 0.3483,0.19662 0.45987,0.62053 0.25649,0.96493 l -0.46414,0.78781 -1.24583,-0.73285 0.45191,-0.76339 c 0.12711,-0.21524 0.3456,-0.34311 0.57407,-0.36031 z m -7.45672,0.98325 a 0.39128118,0.39128118 0 1 0 0.0366,0.7817 h 3.51767 a 0.3908911,0.3908911 0 1 0 0,-0.7817 h -3.51767 a 0.3908911,0.3908911 0 0 0 -0.0366,0 z m 6.03989,0.80612 1.23973,0.73286 -3.15124,5.33756 c -0.20338,0.34442 -0.62883,0.45922 -0.97714,0.26262 l -0.0245,-0.0122 c -0.3483,-0.19662 -0.45986,-0.61442 -0.25649,-0.95882 z m -7.59719,1.14202 a 0.3908911,0.3908911 0 0 0 -0.26261,0.14047 l -1.14201,1.30691 -0.29925,-0.20153 a 0.39128121,0.39128121 0 1 0 -0.43971,0.64734 l 0.58628,0.39086 a 0.3908911,0.3908911 0 0 0 0.51299,-0.0672 l 1.36798,-1.56341 a 0.3908911,0.3908911 0 0 0 -0.28703,-0.65346 0.3908911,0.3908911 0 0 0 -0.0366,0 z m 0,3.12683 a 0.3908911,0.3908911 0 0 0 -0.26261,0.14046 l -1.14201,1.30691 -0.29925,-0.20154 a 0.39128657,0.39128657 0 1 0 -0.43971,0.64736 l 0.58628,0.39085 a 0.3908911,0.3908911 0 0 0 0.51299,-0.0672 l 1.36798,-1.5634 a 0.3908911,0.3908911 0 0 0 -0.28703,-0.65346 0.3908911,0.3908911 0 0 0 -0.0366,0 z"
       id="path8009" />
  </g>
</svg>
